<mxfile host="app.diagrams.net" agent="Mozilla/5.0 (Windows NT 10.0; Win64; x64) AppleWebKit/537.36 (KHTML, like Gecko) Chrome/128.0.0.0 Safari/537.36 Edg/128.0.0.0" version="24.7.13">
  <diagram name="Страница — 1" id="EWJsqtFA12ocFSLxxqzT">
    <mxGraphModel dx="2430" dy="872" grid="1" gridSize="10" guides="1" tooltips="1" connect="1" arrows="1" fold="1" page="1" pageScale="1" pageWidth="827" pageHeight="1169" math="0" shadow="0">
      <root>
        <mxCell id="0" />
        <mxCell id="1" parent="0" />
        <mxCell id="EYuMTao5vbD9je8HPkK4-1" value="Пацієнт" style="rounded=0;whiteSpace=wrap;html=1;" vertex="1" parent="1">
          <mxGeometry x="680" y="295" width="90" height="40" as="geometry" />
        </mxCell>
        <mxCell id="EYuMTao5vbD9je8HPkK4-3" value="Лікар" style="rounded=0;whiteSpace=wrap;html=1;" vertex="1" parent="1">
          <mxGeometry x="-220" y="295" width="90" height="40" as="geometry" />
        </mxCell>
        <mxCell id="EYuMTao5vbD9je8HPkK4-5" value="Історія хвороби" style="rounded=0;whiteSpace=wrap;html=1;" vertex="1" parent="1">
          <mxGeometry x="240" y="150" width="90" height="40" as="geometry" />
        </mxCell>
        <mxCell id="EYuMTao5vbD9je8HPkK4-7" value="id" style="ellipse;whiteSpace=wrap;html=1;" vertex="1" parent="1">
          <mxGeometry x="810" y="180" width="100" height="50" as="geometry" />
        </mxCell>
        <mxCell id="EYuMTao5vbD9je8HPkK4-9" value="П.І.Б" style="ellipse;whiteSpace=wrap;html=1;" vertex="1" parent="1">
          <mxGeometry x="810" y="260" width="100" height="50" as="geometry" />
        </mxCell>
        <mxCell id="EYuMTao5vbD9je8HPkK4-10" value="Стать" style="ellipse;whiteSpace=wrap;html=1;" vertex="1" parent="1">
          <mxGeometry x="810" y="335" width="100" height="50" as="geometry" />
        </mxCell>
        <mxCell id="EYuMTao5vbD9je8HPkK4-11" value="Дата народження" style="ellipse;whiteSpace=wrap;html=1;" vertex="1" parent="1">
          <mxGeometry x="800" y="410" width="120" height="50" as="geometry" />
        </mxCell>
        <mxCell id="EYuMTao5vbD9je8HPkK4-19" value="id" style="ellipse;whiteSpace=wrap;html=1;" vertex="1" parent="1">
          <mxGeometry x="-390" y="155" width="120" height="50" as="geometry" />
        </mxCell>
        <mxCell id="EYuMTao5vbD9je8HPkK4-22" value="П.І.Б" style="ellipse;whiteSpace=wrap;html=1;" vertex="1" parent="1">
          <mxGeometry x="-260" y="205" width="120" height="50" as="geometry" />
        </mxCell>
        <mxCell id="EYuMTao5vbD9je8HPkK4-23" value="Спеціалізація" style="ellipse;whiteSpace=wrap;html=1;" vertex="1" parent="1">
          <mxGeometry x="-120" y="155" width="120" height="50" as="geometry" />
        </mxCell>
        <mxCell id="EYuMTao5vbD9je8HPkK4-24" value="" style="endArrow=none;html=1;rounded=0;exitX=0.444;exitY=0;exitDx=0;exitDy=0;exitPerimeter=0;" edge="1" parent="1" source="EYuMTao5vbD9je8HPkK4-3">
          <mxGeometry width="50" height="50" relative="1" as="geometry">
            <mxPoint x="-250" y="305" as="sourcePoint" />
            <mxPoint x="-200" y="255" as="targetPoint" />
            <Array as="points" />
          </mxGeometry>
        </mxCell>
        <mxCell id="EYuMTao5vbD9je8HPkK4-25" value="" style="curved=1;endArrow=none;html=1;rounded=0;entryX=0.5;entryY=1;entryDx=0;entryDy=0;exitX=0.378;exitY=-0.054;exitDx=0;exitDy=0;exitPerimeter=0;endFill=0;" edge="1" parent="1" source="EYuMTao5vbD9je8HPkK4-3" target="EYuMTao5vbD9je8HPkK4-19">
          <mxGeometry width="50" height="50" relative="1" as="geometry">
            <mxPoint x="-270" y="305" as="sourcePoint" />
            <mxPoint x="-200" y="255" as="targetPoint" />
            <Array as="points">
              <mxPoint x="-290" y="275" />
              <mxPoint x="-250" y="255" />
              <mxPoint x="-320" y="235" />
            </Array>
          </mxGeometry>
        </mxCell>
        <mxCell id="EYuMTao5vbD9je8HPkK4-26" value="" style="curved=1;endArrow=none;html=1;rounded=0;exitX=0.5;exitY=0;exitDx=0;exitDy=0;endFill=0;" edge="1" parent="1" source="EYuMTao5vbD9je8HPkK4-3">
          <mxGeometry width="50" height="50" relative="1" as="geometry">
            <mxPoint x="-100" y="255" as="sourcePoint" />
            <mxPoint x="-50" y="205" as="targetPoint" />
            <Array as="points">
              <mxPoint x="-50" y="255" />
              <mxPoint x="-100" y="205" />
            </Array>
          </mxGeometry>
        </mxCell>
        <mxCell id="EYuMTao5vbD9je8HPkK4-31" value="Рецепт" style="rounded=0;whiteSpace=wrap;html=1;" vertex="1" parent="1">
          <mxGeometry x="250" y="540" width="90" height="40" as="geometry" />
        </mxCell>
        <mxCell id="EYuMTao5vbD9je8HPkK4-33" value="id" style="ellipse;whiteSpace=wrap;html=1;" vertex="1" parent="1">
          <mxGeometry x="110" y="40" width="90" height="50" as="geometry" />
        </mxCell>
        <mxCell id="EYuMTao5vbD9je8HPkK4-35" value="назва&amp;nbsp;&lt;br&gt;хвороби" style="ellipse;whiteSpace=wrap;html=1;" vertex="1" parent="1">
          <mxGeometry x="364" y="40" width="100" height="47.5" as="geometry" />
        </mxCell>
        <mxCell id="EYuMTao5vbD9je8HPkK4-36" value="опис" style="ellipse;whiteSpace=wrap;html=1;" vertex="1" parent="1">
          <mxGeometry x="240" y="40" width="90" height="50" as="geometry" />
        </mxCell>
        <mxCell id="EYuMTao5vbD9je8HPkK4-38" value="id" style="ellipse;whiteSpace=wrap;html=1;" vertex="1" parent="1">
          <mxGeometry x="180" y="640" width="90" height="50" as="geometry" />
        </mxCell>
        <mxCell id="EYuMTao5vbD9je8HPkK4-39" value="назва препарату" style="ellipse;whiteSpace=wrap;html=1;" vertex="1" parent="1">
          <mxGeometry x="304" y="642.5" width="110" height="45" as="geometry" />
        </mxCell>
        <mxCell id="EYuMTao5vbD9je8HPkK4-57" value="" style="curved=1;endArrow=none;html=1;rounded=0;endFill=0;entryX=0.5;entryY=1;entryDx=0;entryDy=0;exitX=0.5;exitY=0;exitDx=0;exitDy=0;" edge="1" parent="1" source="EYuMTao5vbD9je8HPkK4-5" target="EYuMTao5vbD9je8HPkK4-33">
          <mxGeometry width="50" height="50" relative="1" as="geometry">
            <mxPoint x="170" y="160" as="sourcePoint" />
            <mxPoint x="220" y="110" as="targetPoint" />
            <Array as="points">
              <mxPoint x="170" y="110" />
            </Array>
          </mxGeometry>
        </mxCell>
        <mxCell id="EYuMTao5vbD9je8HPkK4-58" value="" style="curved=1;endArrow=none;html=1;rounded=0;endFill=0;entryX=0.5;entryY=1;entryDx=0;entryDy=0;exitX=0.5;exitY=0;exitDx=0;exitDy=0;" edge="1" parent="1" source="EYuMTao5vbD9je8HPkK4-5" target="EYuMTao5vbD9je8HPkK4-35">
          <mxGeometry width="50" height="50" relative="1" as="geometry">
            <mxPoint x="280" y="140" as="sourcePoint" />
            <mxPoint x="410" y="90" as="targetPoint" />
            <Array as="points">
              <mxPoint x="425" y="110" />
            </Array>
          </mxGeometry>
        </mxCell>
        <mxCell id="EYuMTao5vbD9je8HPkK4-61" value="" style="curved=1;endArrow=none;html=1;rounded=0;endFill=0;entryX=0.5;entryY=1;entryDx=0;entryDy=0;exitX=0.5;exitY=0;exitDx=0;exitDy=0;" edge="1" parent="1" source="EYuMTao5vbD9je8HPkK4-5" target="EYuMTao5vbD9je8HPkK4-36">
          <mxGeometry width="50" height="50" relative="1" as="geometry">
            <mxPoint x="414" y="160" as="sourcePoint" />
            <mxPoint x="284" y="100" as="targetPoint" />
            <Array as="points">
              <mxPoint x="299" y="120" />
            </Array>
          </mxGeometry>
        </mxCell>
        <mxCell id="EYuMTao5vbD9je8HPkK4-62" value="" style="curved=1;endArrow=none;html=1;rounded=0;endFill=0;exitX=0.5;exitY=0;exitDx=0;exitDy=0;" edge="1" parent="1" source="EYuMTao5vbD9je8HPkK4-39">
          <mxGeometry width="50" height="50" relative="1" as="geometry">
            <mxPoint x="424" y="660" as="sourcePoint" />
            <mxPoint x="295" y="580" as="targetPoint" />
            <Array as="points">
              <mxPoint x="309" y="620" />
            </Array>
          </mxGeometry>
        </mxCell>
        <mxCell id="EYuMTao5vbD9je8HPkK4-63" value="" style="curved=1;endArrow=none;html=1;rounded=0;endFill=0;entryX=0.5;entryY=1;entryDx=0;entryDy=0;exitX=0.5;exitY=0;exitDx=0;exitDy=0;" edge="1" parent="1" source="EYuMTao5vbD9je8HPkK4-38" target="EYuMTao5vbD9je8HPkK4-31">
          <mxGeometry width="50" height="50" relative="1" as="geometry">
            <mxPoint x="270" y="633" as="sourcePoint" />
            <mxPoint x="206" y="570" as="targetPoint" />
            <Array as="points">
              <mxPoint x="270" y="620" />
            </Array>
          </mxGeometry>
        </mxCell>
        <mxCell id="EYuMTao5vbD9je8HPkK4-65" value="" style="curved=1;endArrow=none;html=1;rounded=0;endFill=0;entryX=1;entryY=0.5;entryDx=0;entryDy=0;exitX=0;exitY=0.5;exitDx=0;exitDy=0;" edge="1" parent="1" source="EYuMTao5vbD9je8HPkK4-7" target="EYuMTao5vbD9je8HPkK4-1">
          <mxGeometry width="50" height="50" relative="1" as="geometry">
            <mxPoint x="794" y="270" as="sourcePoint" />
            <mxPoint x="730" y="207" as="targetPoint" />
            <Array as="points">
              <mxPoint x="780" y="250" />
            </Array>
          </mxGeometry>
        </mxCell>
        <mxCell id="EYuMTao5vbD9je8HPkK4-66" value="" style="curved=1;endArrow=none;html=1;rounded=0;endFill=0;entryX=1;entryY=0.5;entryDx=0;entryDy=0;exitX=0;exitY=0.5;exitDx=0;exitDy=0;" edge="1" parent="1" source="EYuMTao5vbD9je8HPkK4-9" target="EYuMTao5vbD9je8HPkK4-1">
          <mxGeometry width="50" height="50" relative="1" as="geometry">
            <mxPoint x="820" y="215" as="sourcePoint" />
            <mxPoint x="760" y="325" as="targetPoint" />
            <Array as="points">
              <mxPoint x="790" y="285" />
            </Array>
          </mxGeometry>
        </mxCell>
        <mxCell id="EYuMTao5vbD9je8HPkK4-67" value="" style="curved=1;endArrow=none;html=1;rounded=0;endFill=0;entryX=1;entryY=0.5;entryDx=0;entryDy=0;exitX=0;exitY=0.5;exitDx=0;exitDy=0;" edge="1" parent="1" source="EYuMTao5vbD9je8HPkK4-10" target="EYuMTao5vbD9je8HPkK4-1">
          <mxGeometry width="50" height="50" relative="1" as="geometry">
            <mxPoint x="830" y="225" as="sourcePoint" />
            <mxPoint x="770" y="335" as="targetPoint" />
            <Array as="points">
              <mxPoint x="800" y="310" />
            </Array>
          </mxGeometry>
        </mxCell>
        <mxCell id="EYuMTao5vbD9je8HPkK4-68" value="" style="curved=1;endArrow=none;html=1;rounded=0;endFill=0;entryX=1;entryY=0.5;entryDx=0;entryDy=0;exitX=0;exitY=0.5;exitDx=0;exitDy=0;" edge="1" parent="1" source="EYuMTao5vbD9je8HPkK4-11" target="EYuMTao5vbD9je8HPkK4-1">
          <mxGeometry width="50" height="50" relative="1" as="geometry">
            <mxPoint x="840" y="235" as="sourcePoint" />
            <mxPoint x="780" y="345" as="targetPoint" />
            <Array as="points">
              <mxPoint x="800" y="350" />
            </Array>
          </mxGeometry>
        </mxCell>
        <mxCell id="EYuMTao5vbD9je8HPkK4-69" value="Лікує" style="rhombus;whiteSpace=wrap;html=1;" vertex="1" parent="1">
          <mxGeometry y="250" width="90" height="60" as="geometry" />
        </mxCell>
        <mxCell id="EYuMTao5vbD9je8HPkK4-70" value="Мають" style="rhombus;whiteSpace=wrap;html=1;" vertex="1" parent="1">
          <mxGeometry x="464" y="210" width="90" height="60" as="geometry" />
        </mxCell>
        <mxCell id="EYuMTao5vbD9je8HPkK4-71" value="&amp;nbsp; Виписують" style="rhombus;whiteSpace=wrap;html=1;" vertex="1" parent="1">
          <mxGeometry x="240" y="320" width="90" height="60" as="geometry" />
        </mxCell>
        <mxCell id="EYuMTao5vbD9je8HPkK4-72" value="" style="curved=1;endArrow=none;html=1;rounded=0;entryX=0;entryY=0.5;entryDx=0;entryDy=0;exitX=1;exitY=0.5;exitDx=0;exitDy=0;endFill=0;startArrow=ERone;startFill=0;" edge="1" parent="1" source="EYuMTao5vbD9je8HPkK4-3" target="EYuMTao5vbD9je8HPkK4-69">
          <mxGeometry width="50" height="50" relative="1" as="geometry">
            <mxPoint x="-130" y="315" as="sourcePoint" />
            <mxPoint x="-80" y="265" as="targetPoint" />
            <Array as="points">
              <mxPoint x="-80" y="315" />
              <mxPoint x="-70" y="300" />
              <mxPoint x="-40" y="300" />
            </Array>
          </mxGeometry>
        </mxCell>
        <mxCell id="EYuMTao5vbD9je8HPkK4-74" value="" style="curved=1;endArrow=ERzeroToMany;html=1;rounded=0;entryX=0;entryY=0.5;entryDx=0;entryDy=0;exitX=1;exitY=0.5;exitDx=0;exitDy=0;endFill=0;" edge="1" parent="1" source="EYuMTao5vbD9je8HPkK4-69" target="EYuMTao5vbD9je8HPkK4-5">
          <mxGeometry width="50" height="50" relative="1" as="geometry">
            <mxPoint x="110" y="280" as="sourcePoint" />
            <mxPoint x="250" y="255" as="targetPoint" />
            <Array as="points">
              <mxPoint x="180" y="280" />
              <mxPoint x="160" y="160" />
            </Array>
          </mxGeometry>
        </mxCell>
        <mxCell id="EYuMTao5vbD9je8HPkK4-75" value="" style="curved=1;endArrow=ERone;html=1;rounded=0;entryX=0.5;entryY=1;entryDx=0;entryDy=0;exitX=0.5;exitY=0;exitDx=0;exitDy=0;endFill=0;" edge="1" parent="1" source="EYuMTao5vbD9je8HPkK4-71" target="EYuMTao5vbD9je8HPkK4-5">
          <mxGeometry width="50" height="50" relative="1" as="geometry">
            <mxPoint x="270" y="270" as="sourcePoint" />
            <mxPoint x="320" y="220" as="targetPoint" />
            <Array as="points">
              <mxPoint x="285" y="270" />
            </Array>
          </mxGeometry>
        </mxCell>
        <mxCell id="EYuMTao5vbD9je8HPkK4-76" value="" style="curved=1;endArrow=ERzeroToMany;html=1;rounded=0;entryX=0.5;entryY=0;entryDx=0;entryDy=0;exitX=0.5;exitY=1;exitDx=0;exitDy=0;endFill=0;" edge="1" parent="1" source="EYuMTao5vbD9je8HPkK4-71" target="EYuMTao5vbD9je8HPkK4-31">
          <mxGeometry width="50" height="50" relative="1" as="geometry">
            <mxPoint x="280" y="410" as="sourcePoint" />
            <mxPoint x="420" y="385" as="targetPoint" />
            <Array as="points">
              <mxPoint x="290" y="430" />
              <mxPoint x="295" y="480" />
            </Array>
          </mxGeometry>
        </mxCell>
        <mxCell id="EYuMTao5vbD9je8HPkK4-77" value="" style="curved=1;endArrow=none;html=1;rounded=0;entryX=0;entryY=0.5;entryDx=0;entryDy=0;exitX=1;exitY=0.5;exitDx=0;exitDy=0;startArrow=ERzeroToMany;startFill=0;endFill=0;" edge="1" parent="1" source="EYuMTao5vbD9je8HPkK4-5" target="EYuMTao5vbD9je8HPkK4-70">
          <mxGeometry width="50" height="50" relative="1" as="geometry">
            <mxPoint x="350" y="175" as="sourcePoint" />
            <mxPoint x="490" y="150" as="targetPoint" />
            <Array as="points">
              <mxPoint x="400" y="170" />
              <mxPoint x="430" y="210" />
            </Array>
          </mxGeometry>
        </mxCell>
        <mxCell id="EYuMTao5vbD9je8HPkK4-78" value="" style="curved=1;endArrow=ERone;html=1;rounded=0;entryX=0;entryY=0.5;entryDx=0;entryDy=0;exitX=1;exitY=0.5;exitDx=0;exitDy=0;endFill=0;" edge="1" parent="1" source="EYuMTao5vbD9je8HPkK4-70" target="EYuMTao5vbD9je8HPkK4-1">
          <mxGeometry width="50" height="50" relative="1" as="geometry">
            <mxPoint x="580" y="255" as="sourcePoint" />
            <mxPoint x="720" y="230" as="targetPoint" />
            <Array as="points">
              <mxPoint x="610" y="240" />
              <mxPoint x="640" y="315" />
            </Array>
          </mxGeometry>
        </mxCell>
      </root>
    </mxGraphModel>
  </diagram>
</mxfile>
